<?xml version="1.0" standalone="no"?>
<!DOCTYPE svg PUBLIC "-//W3C//DTD SVG 1.1//EN" "http://www.w3.org/Graphics/SVG/1.1/DTD/svg11.dtd">
<svg width="100%" height="100%" viewBox="0 0 347 146" version="1.1" xmlns="http://www.w3.org/2000/svg" xmlns:xlink="http://www.w3.org/1999/xlink" xml:space="preserve" style="fill-rule:evenodd;clip-rule:evenodd;stroke-linejoin:round;stroke-miterlimit:1.41421;">
    <g id="layer1" transform="matrix(1,0,0,1,-31.818,383.281)">
        <rect id="rect2830" x="31.818" y="-383.281" width="347" height="19" style="fill:white;"/>
        <rect id="rect28321" x="31.818" y="-256.281" width="347" height="19" style="fill:white;"/>
        <path id="path2834" d="M44.5,-347.393L44.5,-272.768L63.5,-272.768L63.5,-328.955L81,-272.768L102,-272.768L119.5,-328.955L119.5,-272.768L138.5,-272.768L138.5,-347.393L107,-347.393L91.5,-298.518L76,-347.393L44.5,-347.393Z" style="fill:white;fill-rule:nonzero;"/>
        <path id="path2836" d="M157,-347.768L157,-299.901C157,-293.207 158.455,-285.248 164.35,-279.257C170.246,-273.267 178.974,-270.768 189.75,-270.768C200.526,-270.768 209.285,-273.267 215.181,-279.257C221.077,-285.248 222.5,-293.207 222.5,-299.901L222.5,-347.768L202.652,-347.768L202.652,-299.337C202.652,-292.14 196.875,-286.306 189.75,-286.306C182.625,-286.306 176.848,-292.14 176.848,-299.337L176.848,-347.768L157,-347.768Z" style="fill:white;fill-rule:nonzero;"/>
        <path id="rect3610" d="M313,-347.281L313,-272.281L365.875,-272.281L365.875,-286.268L332,-286.268L332,-303.924L363.375,-303.924L363.375,-317.924L332,-317.924L332,-333.455L365.875,-333.455L365.875,-347.281L313,-347.281Z" style="fill:white;fill-rule:nonzero;"/>
        <path id="path3646" d="M239.531,-326.638C239.531,-298.304 274.478,-305.5 274.478,-292.638C274.478,-279.776 251.678,-287.76 241.895,-290.382L240.192,-273.532C258.074,-268.881 295.625,-266.023 295.625,-295.163C295.625,-324.304 260.748,-313.369 260.174,-326.638C259.6,-339.907 283.598,-332.732 290.19,-330.966L291.2,-346.121C281.511,-348.717 239.531,-354.972 239.531,-326.638Z" style="fill:white;fill-rule:nonzero;"/>
    </g>
</svg>
